<svg id='Google_Sheets_24' width='24' height='24' viewBox='0 0 24 24' xmlns='http://www.w3.org/2000/svg' xmlns:xlink='http://www.w3.org/1999/xlink'><rect width='24' height='24' stroke='none' fill='#000000' opacity='0'/>


<g transform="matrix(0.42 0 0 0.42 12 12)" >
<g style="" >
<g transform="matrix(1 0 0 1 0 0)" >
<path style="stroke: none; stroke-width: 1; stroke-dasharray: none; stroke-linecap: butt; stroke-dashoffset: 0; stroke-linejoin: miter; stroke-miterlimit: 4; fill: rgb(67,160,71); fill-rule: nonzero; opacity: 1;" transform=" translate(-24, -24)" d="M 37 45 L 11 45 C 9.343 45 8 43.657 8 42 L 8 6 C 8 4.343 9.343 3 11 3 L 30 3 L 40 13 L 40 42 C 40 43.657 38.657 45 37 45 z" stroke-linecap="round" />
</g>
<g transform="matrix(1 0 0 1 11 -16)" >
<path style="stroke: none; stroke-width: 1; stroke-dasharray: none; stroke-linecap: butt; stroke-dashoffset: 0; stroke-linejoin: miter; stroke-miterlimit: 4; fill: rgb(200,230,201); fill-rule: nonzero; opacity: 1;" transform=" translate(-35, -8)" d="M 40 13 L 30 13 L 30 3 z" stroke-linecap="round" />
</g>
<g transform="matrix(1 0 0 1 11 -6)" >
<path style="stroke: none; stroke-width: 1; stroke-dasharray: none; stroke-linecap: butt; stroke-dashoffset: 0; stroke-linejoin: miter; stroke-miterlimit: 4; fill: rgb(46,125,50); fill-rule: nonzero; opacity: 1;" transform=" translate(-35, -18)" d="M 30 13 L 40 23 L 40 13 z" stroke-linecap="round" />
</g>
<g transform="matrix(1 0 0 1 0 6)" >
<path style="stroke: none; stroke-width: 1; stroke-dasharray: none; stroke-linecap: butt; stroke-dashoffset: 0; stroke-linejoin: miter; stroke-miterlimit: 4; fill: rgb(232,245,233); fill-rule: nonzero; opacity: 1;" transform=" translate(-24, -30)" d="M 31 23 L 17 23 L 15 23 L 15 25 L 15 27 L 15 29 L 15 31 L 15 33 L 15 35 L 15 37 L 33 37 L 33 35 L 33 33 L 33 31 L 33 29 L 33 27 L 33 25 L 33 23 L 31 23 z M 17 25 L 21 25 L 21 27 L 17 27 L 17 25 z M 17 29 L 21 29 L 21 31 L 17 31 L 17 29 z M 17 33 L 21 33 L 21 35 L 17 35 L 17 33 z M 31 35 L 23 35 L 23 33 L 31 33 L 31 35 z M 31 31 L 23 31 L 23 29 L 31 29 L 31 31 z M 31 27 L 23 27 L 23 25 L 31 25 L 31 27 z" stroke-linecap="round" />
</g>
</g>
</g>
</svg>
